<svg width="136" height="122" viewBox="0 0 136 122" fill="none" xmlns="http://www.w3.org/2000/svg">
<path d="M135.796 34.1448C130.307 -8.47546 101.494 -2.35866 87.7735 6.02728C76.013 16.2877 52.8187 22.1414 42.6917 23.7857C-5.5 10.5 -0.920151 53.8764 1.52995 65.7154C6.23416 104.389 22.136 117.527 37 119.5C63.2651 127.393 103.128 110.769 112.275 101.232C133.835 86.2363 136.939 50.259 135.796 34.1448Z" fill="#9D93FF"/>
<path d="M49.9993 71.2454H50.8842V64.9321C50.3483 64.8341 49.7964 64.779 49.2747 64.6276C46.8213 63.9208 45.2439 62.3024 44.6973 59.8259C44.1365 57.2835 44.9679 55.1452 46.9513 53.4592C47.1026 53.331 47.2664 53.2081 47.4427 53.1191C47.9626 52.8574 48.4486 52.9197 48.81 53.3897C49.1697 53.8615 49.118 54.3476 48.7086 54.7749C48.5412 54.9494 48.3293 55.0829 48.1442 55.2414C46.8089 56.3897 46.3228 58.2467 46.921 59.9042C47.5228 61.576 49.0771 62.6905 50.9287 62.7083C50.9287 62.4538 50.9287 62.1992 50.9287 61.9463C50.9287 54.8799 50.9287 47.8135 50.9287 40.7471C50.9305 37.2308 53.156 35 56.6669 35C64.2194 35 71.7718 35 79.3225 35C82.8281 35 85.0465 37.2326 85.0465 40.7596C85.0465 47.0711 85.0465 53.3808 85.0465 59.6924V60.6004C85.5646 60.6004 86.0631 60.5968 86.5634 60.6004C87.4322 60.6075 87.7509 60.8621 87.945 61.7202C88.091 62.3701 88.2174 63.0235 88.3723 63.6698C88.4097 63.8264 88.488 64.0436 88.6109 64.1006C89.2714 64.4122 89.9462 64.6988 90.6298 64.9517C90.7509 64.9962 90.9574 64.8733 91.0981 64.7861C91.7034 64.414 92.3016 64.0312 92.8945 63.6413C93.4642 63.2692 93.9752 63.3261 94.4523 63.8069C95.2357 64.5956 96.0244 65.3772 96.806 66.1659C97.2405 66.6039 97.2992 67.0917 96.9681 67.6151C96.5781 68.2347 96.1544 68.8365 95.8019 69.4774C95.6897 69.6822 95.7485 69.9866 95.7503 70.2466C95.7503 70.3267 95.8428 70.4032 95.8571 70.4869C96.1188 71.9771 97.1568 72.4169 98.5063 72.6074C99.8541 72.7979 99.9698 73.0347 99.9698 74.418C99.9698 75.3064 99.9751 76.1967 99.9698 77.0851C99.9627 77.8862 99.7206 78.1907 98.9265 78.3848C98.2588 78.5486 97.5787 78.6678 96.9218 78.8637C96.7117 78.926 96.5105 79.1343 96.3841 79.3284C96.2416 79.5456 96.2363 79.8554 96.085 80.0619C95.4512 80.9272 95.7396 81.6215 96.2986 82.4227C97.5218 84.1746 97.479 84.2049 95.9692 85.7253C95.5473 86.1509 95.1236 86.5764 94.7016 87.0019C93.8737 87.8369 93.5871 87.8654 92.5758 87.2155C92.558 87.2031 92.5402 87.1906 92.5206 87.1782C91.3123 86.3995 90.0548 86.3064 88.7479 86.8986C88.5842 86.9734 88.4275 87.1942 88.3794 87.3758C88.1996 88.0612 88.0767 88.7627 87.9112 89.4535C87.7367 90.1817 87.2417 90.5609 86.6489 90.4487C86.015 90.3295 85.6892 89.7864 85.8388 89.0137C86.0346 88.0114 86.2127 87.0019 86.5082 86.028C86.6186 85.6684 86.9871 85.2945 87.3343 85.12C88.2405 84.6642 89.2109 84.3366 90.1349 83.9129C90.6067 83.6957 91.0233 83.6903 91.4542 83.9699C91.9562 84.2957 92.4814 84.5912 92.9622 84.9491C93.3271 85.2197 93.5621 85.1645 93.8541 84.844C94.1337 84.536 94.4826 84.2921 94.8031 84.0197C94.3224 83.2684 93.9467 82.6435 93.5337 82.0435C93.1918 81.5485 93.1972 81.091 93.4535 80.5497C93.8613 79.6916 94.2227 78.8103 94.5485 77.9183C94.7426 77.386 95.0381 77.0548 95.606 76.9462C96.3431 76.8038 97.0713 76.6204 97.8155 76.4512V74.621C97.1158 74.4661 96.4126 74.2916 95.7022 74.1599C95.0595 74.0406 94.7248 73.6774 94.5164 73.0614C94.2262 72.205 93.8666 71.3664 93.4713 70.5528C93.2114 70.0187 93.1687 69.5575 93.5159 69.059C93.8452 68.5854 94.1159 68.0691 94.4595 67.608C94.7319 67.243 94.6571 67.0169 94.3509 66.716C93.4446 65.8294 93.4571 65.8151 92.38 66.5059C92.3052 66.554 92.2233 66.5932 92.1574 66.6502C91.2957 67.4139 90.4482 67.4763 89.4548 66.8015C88.885 66.4151 88.1551 66.2496 87.4803 66.0359C86.9177 65.8579 86.5634 65.557 86.453 64.9517C86.323 64.2324 86.1414 63.522 85.9759 62.7742H85.0839V69.0929C85.4382 69.1445 85.7871 69.1783 86.129 69.246C88.8316 69.789 90.5978 71.4056 91.2423 74.062C91.8832 76.7041 91.0126 78.9224 88.8957 80.6227C88.6393 80.8293 88.2263 81.0411 87.9503 80.9752C87.6014 80.8916 87.2132 80.5889 87.0316 80.2702C86.7646 79.8037 87.0405 79.364 87.4483 79.0649C88.4239 78.3474 89.0293 77.4073 89.25 76.2127C89.7129 73.7059 87.5836 71.183 85.0447 71.3166V72.1C85.0447 79.1432 85.0447 86.1883 85.0447 93.2315C85.0447 96.7852 82.8228 99 79.2602 99C71.7309 99 64.1998 99 56.6705 99C53.1578 99 50.9269 96.7692 50.9269 93.2582C50.9269 86.9253 50.9269 80.5925 50.9269 74.2596C50.9269 73.9979 50.9269 73.7344 50.9269 73.3996C50.3483 73.3996 49.8213 73.3943 49.2961 73.3996C48.6178 73.4085 48.2118 73.0881 48.0694 72.424C47.9198 71.7296 47.7685 71.0371 47.6083 70.3445C47.5744 70.2003 47.5371 69.9866 47.4374 69.9403C46.7359 69.611 46.0237 69.3065 45.3009 69.027C45.1994 68.9878 45.0178 69.1178 44.8914 69.1979C44.2896 69.5736 43.6896 69.9546 43.095 70.3445C42.5324 70.7148 42.0178 70.6845 41.5353 70.1985C40.752 69.4098 39.9632 68.6282 39.1799 67.8412C38.7205 67.3819 38.676 66.878 39.0321 66.3368C39.1175 66.2068 39.2012 66.0769 39.2831 65.9433C39.6534 65.3398 40.2712 64.754 40.3211 64.1238C40.371 63.4935 39.8689 62.8116 39.568 62.1707C39.4897 62.0051 39.2796 61.8431 39.0997 61.7932C38.3947 61.6027 37.6772 61.4514 36.9615 61.2965C36.2903 61.1576 35.9947 60.7392 36.0001 60.0662C36.0072 58.9998 36.0072 57.9333 36.0001 56.8669C35.9965 56.1939 36.2903 55.7773 36.9633 55.6348C37.6576 55.4871 38.3484 55.3286 39.0392 55.1612C39.625 55.0188 40.4885 52.8984 40.1698 52.3927C39.803 51.8105 39.438 51.2266 39.057 50.6533C38.6814 50.0889 38.7134 49.5761 39.1941 49.0936C39.9775 48.3067 40.7626 47.5198 41.5425 46.7293C41.9982 46.2681 42.495 46.2058 43.0433 46.5566C43.6611 46.9518 44.2647 47.3684 44.9021 47.7263C45.0908 47.8313 45.3846 47.8171 45.6107 47.7672C45.8635 47.712 46.0843 47.4966 46.3371 47.4503C47.3377 47.2687 47.7525 46.642 47.8326 45.6771C47.8682 45.2391 47.9928 44.8047 48.1139 44.3774C48.2813 43.7845 48.7691 43.4622 49.3032 43.5513C49.8783 43.6492 50.2789 44.153 50.1667 44.7708C49.9602 45.9049 49.7412 47.0426 49.4243 48.15C49.3353 48.4598 48.9275 48.7482 48.5982 48.9067C47.7026 49.3358 46.759 49.6651 45.8564 50.0835C45.3596 50.3132 44.9306 50.3132 44.4783 50.0123C43.9602 49.6687 43.4475 49.3126 42.8991 49.0224C42.7318 48.9334 42.4095 48.9654 42.2439 49.0741C41.8594 49.3287 41.5264 49.6616 41.1543 49.9767C41.6208 50.7013 41.984 51.3067 42.3899 51.8835C42.7798 52.439 42.7763 52.9446 42.4629 53.5535C42.0588 54.3369 41.7347 55.1684 41.4481 56.0034C41.2487 56.5856 40.946 56.9594 40.3211 57.0769C39.6036 57.2123 38.895 57.3939 38.1597 57.5612V59.3701C38.8879 59.5392 39.6303 59.7315 40.3816 59.8811C40.9549 59.995 41.2327 60.3422 41.4267 60.8674C41.7543 61.7594 42.1211 62.6389 42.5235 63.4988C42.7656 64.0134 42.7852 64.4603 42.4629 64.9356C42.114 65.4502 41.7632 65.9665 41.4748 66.5148C41.3876 66.6804 41.4196 67.0258 41.5389 67.1647C42.4558 68.2258 42.4665 68.2151 43.6362 67.4656C43.8053 67.3588 43.9869 67.268 44.1383 67.1398C44.8344 66.5522 45.4967 66.6092 46.2676 67.0703C46.9068 67.4513 47.6332 67.7166 48.3525 67.9196C49.0664 68.1208 49.4492 68.5071 49.5685 69.2299C49.6789 69.9029 49.8498 70.567 49.9958 71.2454H49.9993ZM82.9171 67.0027C82.9171 58.2271 82.9171 49.4497 82.9171 40.6741C82.9171 38.4184 81.6228 37.1347 79.3528 37.1329C71.779 37.1329 64.2069 37.1329 56.6331 37.1329C54.3364 37.1329 53.0634 38.4184 53.0634 40.7347C53.0634 58.2431 53.0634 75.7498 53.0634 93.2582C53.0634 95.6066 54.3328 96.8671 56.6936 96.8671C64.223 96.8671 71.7505 96.8671 79.2798 96.8671C81.6726 96.8671 82.9171 95.6119 82.9171 93.1977C82.9171 84.4666 82.9171 75.7337 82.9171 67.0027Z" fill="black"/>
<path d="M90.3699 43.5387C90.9414 43.5334 91.4256 44.0016 91.4417 44.5785C91.4577 45.1945 90.936 45.7696 90.3556 45.7749C89.7556 45.7803 89.3283 45.3512 89.3176 44.7316C89.3052 44.0479 89.7485 43.5459 90.3716 43.5405L90.3699 43.5387Z" fill="black"/>
<path d="M89.314 48.9619C89.3175 48.2818 89.7804 47.7904 90.4036 47.8064C90.9769 47.8207 91.4433 48.3049 91.4398 48.8818C91.4362 49.5031 90.8967 50.0604 90.3181 50.0426C89.7146 50.0248 89.3122 49.5922 89.314 48.9619Z" fill="black"/>
<path d="M89.314 53.2295C89.3158 52.5493 89.7787 52.058 90.4036 52.0722C90.9769 52.0847 91.4433 52.5689 91.4398 53.1458C91.4362 53.7671 90.8985 54.3244 90.3181 54.3084C89.7146 54.2924 89.3122 53.8579 89.314 53.2295Z" fill="black"/>
<path d="M44.5337 80.7118C44.5497 80.0708 45.0019 79.5972 45.5948 79.5955C46.193 79.5937 46.6844 80.1064 46.6595 80.7064C46.6328 81.3403 46.1076 81.8405 45.5005 81.8103C44.8898 81.78 44.5177 81.3563 44.5337 80.7118Z" fill="black"/>
<path d="M44.5337 84.99C44.5462 84.3206 45.0322 83.8292 45.65 83.8612C46.2215 83.8897 46.6791 84.3864 46.6613 84.9597C46.6417 85.5935 46.12 86.101 45.5147 86.0778C44.9022 86.0529 44.523 85.6327 44.5355 84.9918L44.5337 84.99Z" fill="black"/>
<path d="M44.5337 89.2594C44.5444 88.5899 45.0286 88.0985 45.6464 88.127C46.2179 88.1537 46.6773 88.6487 46.6613 89.222C46.6435 89.8558 46.1236 90.365 45.5183 90.3436C44.9058 90.3205 44.5248 89.9021 44.5355 89.2594H44.5337Z" fill="black"/>
<path d="M59.8541 67.0437C60.2405 67.3962 60.5912 67.6953 60.9188 68.0193C61.679 68.7671 62.4304 69.522 63.1799 70.2787C63.8155 70.9196 63.8903 71.5303 63.4024 72.0163C62.9146 72.5024 62.3075 72.424 61.6666 71.7849C60.3936 70.5154 59.1224 69.2442 57.8547 67.9695C57.1354 67.2466 57.1337 66.7588 57.8458 66.0413C59.0974 64.7826 60.3544 63.5274 61.6096 62.2722C62.2986 61.585 62.8897 61.487 63.3935 61.9767C63.901 62.468 63.8173 63.0841 63.1407 63.7624C62.0778 64.8271 61.0114 65.8882 59.8523 67.0454L59.8541 67.0437Z" fill="white"/>
<path d="M76.0998 67.0026C74.9889 65.8988 73.9509 64.8697 72.9147 63.8371C72.7741 63.6964 72.6227 63.5611 72.5034 63.4026C72.1509 62.9291 72.1652 62.4501 72.5568 62.0086C72.9343 61.5849 73.561 61.5136 73.9919 61.932C75.4731 63.3688 76.9331 64.8305 78.3734 66.3083C78.7829 66.7284 78.7811 67.2768 78.3734 67.6952C76.9509 69.1605 75.507 70.6061 74.0453 72.0305C73.5877 72.4773 72.9574 72.4221 72.5515 71.9984C72.1331 71.5604 72.1438 70.9498 72.6316 70.453C73.7515 69.3154 74.8927 68.199 76.0981 67.0008L76.0998 67.0026Z" fill="white"/>
<path d="M70.1198 62.8526C70.0112 63.2924 69.8723 63.8496 69.7335 64.4069C69.1584 66.7054 68.5869 69.0057 68.0065 71.3024C67.8124 72.0715 67.3068 72.4454 66.6979 72.3047C66.0445 72.1534 65.7578 71.5801 65.9537 70.7843C66.6302 68.0549 67.3086 65.3238 67.9958 62.598C68.1614 61.941 68.6243 61.6046 69.1833 61.6775C69.7086 61.747 70.1056 62.1903 70.1198 62.8508V62.8526Z" fill="white"/>
<path d="M68.0295 41.4005C67.0076 41.4005 65.9856 41.4076 64.9655 41.3987C64.1946 41.3916 63.7139 40.9554 63.7299 40.3091C63.7459 39.686 64.2088 39.2747 64.9495 39.2729C66.9702 39.264 68.991 39.264 71.0117 39.2729C71.7844 39.2765 72.2633 39.7145 72.2473 40.3625C72.2313 40.9857 71.7666 41.3934 71.026 41.4005C70.0272 41.4112 69.0266 41.404 68.0278 41.404L68.0295 41.4005Z" fill="black"/>
</svg>
