<svg width="1701" height="516" viewBox="0 0 1701 516" fill="none" xmlns="http://www.w3.org/2000/svg">
<mask id="mask0_237_254" style="mask-type:alpha" maskUnits="userSpaceOnUse" x="0" y="0" width="1701" height="516">
<rect width="1701" height="515.181" fill="#D9D9D9"/>
</mask>
<g mask="url(#mask0_237_254)">
<path d="M1562.45 -93.2166L1636.77 -96.0183L1704.93 -6.82893V680.124H849.563H-32.8667L12.6556 -46.0536C-7.54126 -56.7937 0.821411 -86.1188 195.847 -117.499C390.873 -148.878 508.425 -116.253 542.823 -96.0183C720.808 -31.391 867.55 -91.471 956.543 -117.499C1117.49 -157.844 1269.12 -129.951 1324.82 -110.961C1389.95 -92.6562 1510.38 -91.5044 1562.45 -93.2166Z" fill="url(#paint0_linear_237_254)"/>
<path fill-rule="evenodd" clip-rule="evenodd" d="M18.0094 23.7391C18.0094 21.8673 19.5267 20.3499 21.3985 20.3499C23.2703 20.3499 24.7877 21.8673 24.7877 23.7391C24.7877 25.6109 23.2703 27.1283 21.3985 27.1283C19.5267 27.1283 18.0094 25.6109 18.0094 23.7391Z" fill="#F07A25"/>
<path fill-rule="evenodd" clip-rule="evenodd" d="M66.1162 23.7391C66.1162 21.8673 67.6336 20.3499 69.5054 20.3499C71.3772 20.3499 72.8945 21.8673 72.8945 23.7391C72.8945 25.6109 71.3772 27.1283 69.5054 27.1283C67.6336 27.1283 66.1162 25.6109 66.1162 23.7391Z" fill="#F07A25"/>
<path fill-rule="evenodd" clip-rule="evenodd" d="M114.231 23.7391C114.231 21.8673 115.749 20.3499 117.62 20.3499C119.492 20.3499 121.01 21.8673 121.01 23.7391C121.01 25.6109 119.492 27.1283 117.62 27.1283C115.749 27.1283 114.231 25.6109 114.231 23.7391Z" fill="#F07A25"/>
<path fill-rule="evenodd" clip-rule="evenodd" d="M162.338 23.7391C162.338 21.8673 163.855 20.3499 165.727 20.3499C167.599 20.3499 169.116 21.8673 169.116 23.7391C169.116 25.6109 167.599 27.1283 165.727 27.1283C163.855 27.1283 162.338 25.6109 162.338 23.7391Z" fill="#F07A25"/>
<path fill-rule="evenodd" clip-rule="evenodd" d="M210.445 23.7391C210.445 21.8673 211.962 20.3499 213.834 20.3499C215.706 20.3499 217.223 21.8673 217.223 23.7391C217.223 25.6109 215.706 27.1283 213.834 27.1283C211.962 27.1283 210.445 25.6109 210.445 23.7391Z" fill="#F07A25"/>
<path fill-rule="evenodd" clip-rule="evenodd" d="M258.56 23.7391C258.56 21.8673 260.077 20.3499 261.949 20.3499C263.821 20.3499 265.338 21.8673 265.338 23.7391C265.338 25.6109 263.821 27.1283 261.949 27.1283C260.077 27.1283 258.56 25.6109 258.56 23.7391Z" fill="#F07A25"/>
<path fill-rule="evenodd" clip-rule="evenodd" d="M306.667 23.7391C306.667 21.8673 308.184 20.3499 310.056 20.3499C311.928 20.3499 313.445 21.8673 313.445 23.7391C313.445 25.6109 311.928 27.1283 310.056 27.1283C308.184 27.1283 306.667 25.6109 306.667 23.7391Z" fill="#F07A25"/>
<path fill-rule="evenodd" clip-rule="evenodd" d="M354.782 23.7391C354.782 21.8673 356.299 20.3499 358.171 20.3499C360.043 20.3499 361.56 21.8673 361.56 23.7391C361.56 25.6109 360.043 27.1283 358.171 27.1283C356.299 27.1283 354.782 25.6109 354.782 23.7391Z" fill="#F07A25"/>
<path fill-rule="evenodd" clip-rule="evenodd" d="M402.889 23.7391C402.889 21.8673 404.406 20.3499 406.278 20.3499C408.149 20.3499 409.667 21.8673 409.667 23.7391C409.667 25.6109 408.149 27.1283 406.278 27.1283C404.406 27.1283 402.889 25.6109 402.889 23.7391Z" fill="#F07A25"/>
<path fill-rule="evenodd" clip-rule="evenodd" d="M450.995 23.7391C450.995 21.8673 452.513 20.3499 454.385 20.3499C456.256 20.3499 457.774 21.8673 457.774 23.7391C457.774 25.6109 456.256 27.1283 454.385 27.1283C452.513 27.1283 450.995 25.6109 450.995 23.7391Z" fill="#F07A25"/>
<path fill-rule="evenodd" clip-rule="evenodd" d="M18.0094 56.2228C18.0094 54.351 19.5267 52.8336 21.3985 52.8336C23.2703 52.8336 24.7877 54.351 24.7877 56.2228C24.7877 58.0946 23.2703 59.612 21.3985 59.612C19.5267 59.612 18.0094 58.0946 18.0094 56.2228Z" fill="#F07A25"/>
<path fill-rule="evenodd" clip-rule="evenodd" d="M66.1162 56.2228C66.1162 54.351 67.6336 52.8336 69.5054 52.8336C71.3772 52.8336 72.8945 54.351 72.8945 56.2228C72.8945 58.0946 71.3772 59.612 69.5054 59.612C67.6336 59.612 66.1162 58.0946 66.1162 56.2228Z" fill="#F07A25"/>
<path fill-rule="evenodd" clip-rule="evenodd" d="M114.231 56.2228C114.231 54.351 115.748 52.8336 117.62 52.8336C119.492 52.8336 121.009 54.351 121.009 56.2228C121.009 58.0946 119.492 59.612 117.62 59.612C115.748 59.612 114.231 58.0946 114.231 56.2228Z" fill="#F07A25"/>
<path fill-rule="evenodd" clip-rule="evenodd" d="M162.338 56.2228C162.338 54.351 163.855 52.8336 165.727 52.8336C167.599 52.8336 169.116 54.351 169.116 56.2228C169.116 58.0946 167.599 59.612 165.727 59.612C163.855 59.612 162.338 58.0946 162.338 56.2228Z" fill="#F07A25"/>
<path fill-rule="evenodd" clip-rule="evenodd" d="M210.445 56.2228C210.445 54.351 211.962 52.8336 213.834 52.8336C215.706 52.8336 217.223 54.351 217.223 56.2228C217.223 58.0946 215.706 59.612 213.834 59.612C211.962 59.612 210.445 58.0946 210.445 56.2228Z" fill="#F07A25"/>
<path fill-rule="evenodd" clip-rule="evenodd" d="M258.56 56.2228C258.56 54.351 260.077 52.8336 261.949 52.8336C263.821 52.8336 265.338 54.351 265.338 56.2228C265.338 58.0946 263.821 59.612 261.949 59.612C260.077 59.612 258.56 58.0946 258.56 56.2228Z" fill="#F07A25"/>
<path fill-rule="evenodd" clip-rule="evenodd" d="M306.667 56.2228C306.667 54.351 308.184 52.8336 310.056 52.8336C311.928 52.8336 313.445 54.351 313.445 56.2228C313.445 58.0946 311.928 59.612 310.056 59.612C308.184 59.612 306.667 58.0946 306.667 56.2228Z" fill="#F07A25"/>
<path fill-rule="evenodd" clip-rule="evenodd" d="M354.782 56.2228C354.782 54.351 356.299 52.8336 358.171 52.8336C360.043 52.8336 361.56 54.351 361.56 56.2228C361.56 58.0946 360.043 59.612 358.171 59.612C356.299 59.612 354.782 58.0946 354.782 56.2228Z" fill="#F07A25"/>
<path fill-rule="evenodd" clip-rule="evenodd" d="M402.889 56.2228C402.889 54.351 404.406 52.8336 406.278 52.8336C408.149 52.8336 409.667 54.351 409.667 56.2228C409.667 58.0946 408.149 59.612 406.278 59.612C404.406 59.612 402.889 58.0946 402.889 56.2228Z" fill="#F07A25"/>
<path fill-rule="evenodd" clip-rule="evenodd" d="M450.996 56.2228C450.996 54.351 452.513 52.8336 454.385 52.8336C456.257 52.8336 457.774 54.351 457.774 56.2228C457.774 58.0946 456.257 59.612 454.385 59.612C452.513 59.612 450.996 58.0946 450.996 56.2228Z" fill="#F07A25"/>
<path fill-rule="evenodd" clip-rule="evenodd" d="M18.0094 88.7065C18.0094 86.8347 19.5267 85.3173 21.3985 85.3173C23.2703 85.3173 24.7877 86.8347 24.7877 88.7065C24.7877 90.5783 23.2703 92.0957 21.3985 92.0957C19.5267 92.0957 18.0094 90.5783 18.0094 88.7065Z" fill="#F07A25"/>
<path fill-rule="evenodd" clip-rule="evenodd" d="M66.1162 88.7065C66.1162 86.8347 67.6336 85.3173 69.5054 85.3173C71.3772 85.3173 72.8945 86.8347 72.8945 88.7065C72.8945 90.5783 71.3772 92.0957 69.5054 92.0957C67.6336 92.0957 66.1162 90.5783 66.1162 88.7065Z" fill="#F07A25"/>
<path fill-rule="evenodd" clip-rule="evenodd" d="M114.231 88.7065C114.231 86.8347 115.748 85.3173 117.62 85.3173C119.492 85.3173 121.009 86.8347 121.009 88.7065C121.009 90.5783 119.492 92.0957 117.62 92.0957C115.748 92.0957 114.231 90.5783 114.231 88.7065Z" fill="#F07A25"/>
<path fill-rule="evenodd" clip-rule="evenodd" d="M162.338 88.7065C162.338 86.8347 163.855 85.3173 165.727 85.3173C167.599 85.3173 169.116 86.8347 169.116 88.7065C169.116 90.5783 167.599 92.0957 165.727 92.0957C163.855 92.0957 162.338 90.5783 162.338 88.7065Z" fill="#F07A25"/>
<path fill-rule="evenodd" clip-rule="evenodd" d="M210.445 88.7065C210.445 86.8347 211.962 85.3173 213.834 85.3173C215.706 85.3173 217.223 86.8347 217.223 88.7065C217.223 90.5783 215.706 92.0957 213.834 92.0957C211.962 92.0957 210.445 90.5783 210.445 88.7065Z" fill="#F07A25"/>
<path fill-rule="evenodd" clip-rule="evenodd" d="M258.56 88.7065C258.56 86.8347 260.077 85.3173 261.949 85.3173C263.821 85.3173 265.338 86.8347 265.338 88.7065C265.338 90.5783 263.821 92.0957 261.949 92.0957C260.077 92.0957 258.56 90.5783 258.56 88.7065Z" fill="#F07A25"/>
<path fill-rule="evenodd" clip-rule="evenodd" d="M306.667 88.7065C306.667 86.8347 308.184 85.3173 310.056 85.3173C311.928 85.3173 313.445 86.8347 313.445 88.7065C313.445 90.5783 311.928 92.0957 310.056 92.0957C308.184 92.0957 306.667 90.5783 306.667 88.7065Z" fill="#F07A25"/>
<path fill-rule="evenodd" clip-rule="evenodd" d="M354.782 88.7065C354.782 86.8347 356.299 85.3173 358.171 85.3173C360.043 85.3173 361.56 86.8347 361.56 88.7065C361.56 90.5783 360.043 92.0957 358.171 92.0957C356.299 92.0957 354.782 90.5783 354.782 88.7065Z" fill="#F07A25"/>
<path fill-rule="evenodd" clip-rule="evenodd" d="M402.889 88.7065C402.889 86.8347 404.406 85.3173 406.278 85.3173C408.149 85.3173 409.667 86.8347 409.667 88.7065C409.667 90.5783 408.149 92.0957 406.278 92.0957C404.406 92.0957 402.889 90.5783 402.889 88.7065Z" fill="#F07A25"/>
<path fill-rule="evenodd" clip-rule="evenodd" d="M450.996 88.7065C450.996 86.8347 452.513 85.3173 454.385 85.3173C456.257 85.3173 457.774 86.8347 457.774 88.7065C457.774 90.5783 456.257 92.0957 454.385 92.0957C452.513 92.0957 450.996 90.5783 450.996 88.7065Z" fill="#F07A25"/>
<path fill-rule="evenodd" clip-rule="evenodd" d="M18.0094 121.19C18.0094 119.318 19.5267 117.801 21.3985 117.801C23.2703 117.801 24.7877 119.318 24.7877 121.19C24.7877 123.062 23.2703 124.579 21.3985 124.579C19.5267 124.579 18.0094 123.062 18.0094 121.19Z" fill="#F07A25"/>
<path fill-rule="evenodd" clip-rule="evenodd" d="M66.1162 121.19C66.1162 119.318 67.6336 117.801 69.5054 117.801C71.3772 117.801 72.8945 119.318 72.8945 121.19C72.8945 123.062 71.3772 124.579 69.5054 124.579C67.6336 124.579 66.1162 123.062 66.1162 121.19Z" fill="#F07A25"/>
<path fill-rule="evenodd" clip-rule="evenodd" d="M114.231 121.19C114.231 119.318 115.748 117.801 117.62 117.801C119.492 117.801 121.009 119.318 121.009 121.19C121.009 123.062 119.492 124.579 117.62 124.579C115.748 124.579 114.231 123.062 114.231 121.19Z" fill="#F07A25"/>
<path fill-rule="evenodd" clip-rule="evenodd" d="M162.338 121.19C162.338 119.318 163.855 117.801 165.727 117.801C167.599 117.801 169.116 119.318 169.116 121.19C169.116 123.062 167.599 124.579 165.727 124.579C163.855 124.579 162.338 123.062 162.338 121.19Z" fill="#F07A25"/>
<path fill-rule="evenodd" clip-rule="evenodd" d="M210.445 121.19C210.445 119.318 211.962 117.801 213.834 117.801C215.706 117.801 217.223 119.318 217.223 121.19C217.223 123.062 215.706 124.579 213.834 124.579C211.962 124.579 210.445 123.062 210.445 121.19Z" fill="#F07A25"/>
<path fill-rule="evenodd" clip-rule="evenodd" d="M258.56 121.19C258.56 119.318 260.077 117.801 261.949 117.801C263.821 117.801 265.338 119.318 265.338 121.19C265.338 123.062 263.821 124.579 261.949 124.579C260.077 124.579 258.56 123.062 258.56 121.19Z" fill="#F07A25"/>
<path fill-rule="evenodd" clip-rule="evenodd" d="M306.667 121.19C306.667 119.318 308.184 117.801 310.056 117.801C311.928 117.801 313.445 119.318 313.445 121.19C313.445 123.062 311.928 124.579 310.056 124.579C308.184 124.579 306.667 123.062 306.667 121.19Z" fill="#F07A25"/>
<path fill-rule="evenodd" clip-rule="evenodd" d="M354.782 121.19C354.782 119.318 356.299 117.801 358.171 117.801C360.043 117.801 361.56 119.318 361.56 121.19C361.56 123.062 360.043 124.579 358.171 124.579C356.299 124.579 354.782 123.062 354.782 121.19Z" fill="#F07A25"/>
<path fill-rule="evenodd" clip-rule="evenodd" d="M402.889 121.19C402.889 119.318 404.406 117.801 406.278 117.801C408.149 117.801 409.667 119.318 409.667 121.19C409.667 123.062 408.149 124.579 406.278 124.579C404.406 124.579 402.889 123.062 402.889 121.19Z" fill="#F07A25"/>
<path fill-rule="evenodd" clip-rule="evenodd" d="M450.996 121.19C450.996 119.318 452.513 117.801 454.385 117.801C456.257 117.801 457.774 119.318 457.774 121.19C457.774 123.062 456.257 124.579 454.385 124.579C452.513 124.579 450.996 123.062 450.996 121.19Z" fill="#F07A25"/>
<path fill-rule="evenodd" clip-rule="evenodd" d="M18.0094 153.674C18.0094 151.803 19.5267 150.285 21.3985 150.285C23.2703 150.285 24.7877 151.803 24.7877 153.674C24.7877 155.546 23.2703 157.064 21.3985 157.064C19.5267 157.064 18.0094 155.546 18.0094 153.674Z" fill="#F07A25"/>
<path fill-rule="evenodd" clip-rule="evenodd" d="M66.1162 153.674C66.1162 151.803 67.6336 150.285 69.5054 150.285C71.3772 150.285 72.8945 151.803 72.8945 153.674C72.8945 155.546 71.3772 157.064 69.5054 157.064C67.6336 157.064 66.1162 155.546 66.1162 153.674Z" fill="#F07A25"/>
<path fill-rule="evenodd" clip-rule="evenodd" d="M114.231 153.674C114.231 151.803 115.748 150.285 117.62 150.285C119.492 150.285 121.009 151.803 121.009 153.674C121.009 155.546 119.492 157.064 117.62 157.064C115.748 157.064 114.231 155.546 114.231 153.674Z" fill="#F07A25"/>
<path fill-rule="evenodd" clip-rule="evenodd" d="M162.338 153.674C162.338 151.803 163.855 150.285 165.727 150.285C167.599 150.285 169.116 151.803 169.116 153.674C169.116 155.546 167.599 157.064 165.727 157.064C163.855 157.064 162.338 155.546 162.338 153.674Z" fill="#F07A25"/>
<path fill-rule="evenodd" clip-rule="evenodd" d="M210.445 153.674C210.445 151.803 211.962 150.285 213.834 150.285C215.706 150.285 217.223 151.803 217.223 153.674C217.223 155.546 215.706 157.064 213.834 157.064C211.962 157.064 210.445 155.546 210.445 153.674Z" fill="#F07A25"/>
<path fill-rule="evenodd" clip-rule="evenodd" d="M258.56 153.674C258.56 151.803 260.077 150.285 261.949 150.285C263.821 150.285 265.338 151.803 265.338 153.674C265.338 155.546 263.821 157.064 261.949 157.064C260.077 157.064 258.56 155.546 258.56 153.674Z" fill="#F07A25"/>
<path fill-rule="evenodd" clip-rule="evenodd" d="M306.667 153.674C306.667 151.803 308.184 150.285 310.056 150.285C311.928 150.285 313.445 151.803 313.445 153.674C313.445 155.546 311.928 157.064 310.056 157.064C308.184 157.064 306.667 155.546 306.667 153.674Z" fill="#F07A25"/>
<path fill-rule="evenodd" clip-rule="evenodd" d="M354.782 153.674C354.782 151.803 356.299 150.285 358.171 150.285C360.043 150.285 361.56 151.803 361.56 153.674C361.56 155.546 360.043 157.064 358.171 157.064C356.299 157.064 354.782 155.546 354.782 153.674Z" fill="#F07A25"/>
<path fill-rule="evenodd" clip-rule="evenodd" d="M402.889 153.674C402.889 151.803 404.406 150.285 406.278 150.285C408.149 150.285 409.667 151.803 409.667 153.674C409.667 155.546 408.149 157.064 406.278 157.064C404.406 157.064 402.889 155.546 402.889 153.674Z" fill="#F07A25"/>
<path fill-rule="evenodd" clip-rule="evenodd" d="M450.996 153.674C450.996 151.803 452.513 150.285 454.385 150.285C456.257 150.285 457.774 151.803 457.774 153.674C457.774 155.546 456.257 157.064 454.385 157.064C452.513 157.064 450.996 155.546 450.996 153.674Z" fill="#F07A25"/>
<path fill-rule="evenodd" clip-rule="evenodd" d="M1405.03 356.839C1405.03 354.967 1406.55 353.45 1408.42 353.45C1410.3 353.45 1411.81 354.967 1411.81 356.839C1411.81 358.711 1410.3 360.228 1408.42 360.228C1406.55 360.228 1405.03 358.711 1405.03 356.839Z" fill="#F07A25"/>
<path fill-rule="evenodd" clip-rule="evenodd" d="M1453.14 356.839C1453.14 354.967 1454.66 353.45 1456.53 353.45C1458.4 353.45 1459.92 354.967 1459.92 356.839C1459.92 358.711 1458.4 360.228 1456.53 360.228C1454.66 360.228 1453.14 358.711 1453.14 356.839Z" fill="#F07A25"/>
<path fill-rule="evenodd" clip-rule="evenodd" d="M1501.26 356.839C1501.26 354.967 1502.77 353.45 1504.65 353.45C1506.52 353.45 1508.03 354.967 1508.03 356.839C1508.03 358.711 1506.52 360.228 1504.65 360.228C1502.77 360.228 1501.26 358.711 1501.26 356.839Z" fill="#F07A25"/>
<path fill-rule="evenodd" clip-rule="evenodd" d="M1549.36 356.839C1549.36 354.967 1550.88 353.45 1552.75 353.45C1554.62 353.45 1556.14 354.967 1556.14 356.839C1556.14 358.711 1554.62 360.228 1552.75 360.228C1550.88 360.228 1549.36 358.711 1549.36 356.839Z" fill="#F07A25"/>
<path fill-rule="evenodd" clip-rule="evenodd" d="M1597.47 356.839C1597.47 354.967 1598.99 353.45 1600.86 353.45C1602.73 353.45 1604.25 354.967 1604.25 356.839C1604.25 358.711 1602.73 360.228 1600.86 360.228C1598.99 360.228 1597.47 358.711 1597.47 356.839Z" fill="#F07A25"/>
<path fill-rule="evenodd" clip-rule="evenodd" d="M1645.58 356.839C1645.58 354.967 1647.1 353.45 1648.97 353.45C1650.85 353.45 1652.36 354.967 1652.36 356.839C1652.36 358.711 1650.85 360.228 1648.97 360.228C1647.1 360.228 1645.58 358.711 1645.58 356.839Z" fill="#F07A25"/>
<path fill-rule="evenodd" clip-rule="evenodd" d="M1693.69 356.839C1693.69 354.967 1695.21 353.45 1697.08 353.45C1698.95 353.45 1700.47 354.967 1700.47 356.839C1700.47 358.711 1698.95 360.228 1697.08 360.228C1695.21 360.228 1693.69 358.711 1693.69 356.839Z" fill="#F07A25"/>
<path fill-rule="evenodd" clip-rule="evenodd" d="M1405.03 389.323C1405.03 387.451 1406.55 385.934 1408.42 385.934C1410.3 385.934 1411.81 387.451 1411.81 389.323C1411.81 391.195 1410.3 392.712 1408.42 392.712C1406.55 392.712 1405.03 391.195 1405.03 389.323Z" fill="#F07A25"/>
<path fill-rule="evenodd" clip-rule="evenodd" d="M1453.14 389.323C1453.14 387.451 1454.66 385.934 1456.53 385.934C1458.4 385.934 1459.92 387.451 1459.92 389.323C1459.92 391.195 1458.4 392.712 1456.53 392.712C1454.66 392.712 1453.14 391.195 1453.14 389.323Z" fill="#F07A25"/>
<path fill-rule="evenodd" clip-rule="evenodd" d="M1501.26 389.323C1501.26 387.451 1502.77 385.934 1504.65 385.934C1506.52 385.934 1508.03 387.451 1508.03 389.323C1508.03 391.195 1506.52 392.712 1504.65 392.712C1502.77 392.712 1501.26 391.195 1501.26 389.323Z" fill="#F07A25"/>
<path fill-rule="evenodd" clip-rule="evenodd" d="M1549.36 389.323C1549.36 387.451 1550.88 385.934 1552.75 385.934C1554.62 385.934 1556.14 387.451 1556.14 389.323C1556.14 391.195 1554.62 392.712 1552.75 392.712C1550.88 392.712 1549.36 391.195 1549.36 389.323Z" fill="#F07A25"/>
<path fill-rule="evenodd" clip-rule="evenodd" d="M1597.47 389.323C1597.47 387.451 1598.99 385.934 1600.86 385.934C1602.73 385.934 1604.25 387.451 1604.25 389.323C1604.25 391.195 1602.73 392.712 1600.86 392.712C1598.99 392.712 1597.47 391.195 1597.47 389.323Z" fill="#F07A25"/>
<path fill-rule="evenodd" clip-rule="evenodd" d="M1645.58 389.323C1645.58 387.451 1647.1 385.934 1648.97 385.934C1650.85 385.934 1652.36 387.451 1652.36 389.323C1652.36 391.195 1650.85 392.712 1648.97 392.712C1647.1 392.712 1645.58 391.195 1645.58 389.323Z" fill="#F07A25"/>
<path fill-rule="evenodd" clip-rule="evenodd" d="M1693.69 389.323C1693.69 387.451 1695.21 385.934 1697.08 385.934C1698.95 385.934 1700.47 387.451 1700.47 389.323C1700.47 391.195 1698.95 392.712 1697.08 392.712C1695.21 392.712 1693.69 391.195 1693.69 389.323Z" fill="#F07A25"/>
<path fill-rule="evenodd" clip-rule="evenodd" d="M1405.03 421.807C1405.03 419.935 1406.55 418.418 1408.42 418.418C1410.3 418.418 1411.81 419.935 1411.81 421.807C1411.81 423.679 1410.3 425.196 1408.42 425.196C1406.55 425.196 1405.03 423.679 1405.03 421.807Z" fill="#F07A25"/>
<path fill-rule="evenodd" clip-rule="evenodd" d="M1453.14 421.807C1453.14 419.935 1454.66 418.418 1456.53 418.418C1458.4 418.418 1459.92 419.935 1459.92 421.807C1459.92 423.679 1458.4 425.196 1456.53 425.196C1454.66 425.196 1453.14 423.679 1453.14 421.807Z" fill="#F07A25"/>
<path fill-rule="evenodd" clip-rule="evenodd" d="M1501.26 421.807C1501.26 419.935 1502.77 418.418 1504.65 418.418C1506.52 418.418 1508.03 419.935 1508.03 421.807C1508.03 423.679 1506.52 425.196 1504.65 425.196C1502.77 425.196 1501.26 423.679 1501.26 421.807Z" fill="#F07A25"/>
<path fill-rule="evenodd" clip-rule="evenodd" d="M1549.36 421.807C1549.36 419.935 1550.88 418.418 1552.75 418.418C1554.62 418.418 1556.14 419.935 1556.14 421.807C1556.14 423.679 1554.62 425.196 1552.75 425.196C1550.88 425.196 1549.36 423.679 1549.36 421.807Z" fill="#F07A25"/>
<path fill-rule="evenodd" clip-rule="evenodd" d="M1597.47 421.807C1597.47 419.935 1598.99 418.418 1600.86 418.418C1602.73 418.418 1604.25 419.935 1604.25 421.807C1604.25 423.679 1602.73 425.196 1600.86 425.196C1598.99 425.196 1597.47 423.679 1597.47 421.807Z" fill="#F07A25"/>
<path fill-rule="evenodd" clip-rule="evenodd" d="M1645.58 421.807C1645.58 419.935 1647.1 418.418 1648.97 418.418C1650.85 418.418 1652.36 419.935 1652.36 421.807C1652.36 423.679 1650.85 425.196 1648.97 425.196C1647.1 425.196 1645.58 423.679 1645.58 421.807Z" fill="#F07A25"/>
<path fill-rule="evenodd" clip-rule="evenodd" d="M1693.69 421.807C1693.69 419.935 1695.21 418.418 1697.08 418.418C1698.95 418.418 1700.47 419.935 1700.47 421.807C1700.47 423.679 1698.95 425.196 1697.08 425.196C1695.21 425.196 1693.69 423.679 1693.69 421.807Z" fill="#F07A25"/>
<path fill-rule="evenodd" clip-rule="evenodd" d="M1405.03 454.291C1405.03 452.419 1406.55 450.901 1408.42 450.901C1410.3 450.901 1411.81 452.419 1411.81 454.291C1411.81 456.162 1410.3 457.68 1408.42 457.68C1406.55 457.68 1405.03 456.162 1405.03 454.291Z" fill="#F07A25"/>
<path fill-rule="evenodd" clip-rule="evenodd" d="M1453.14 454.291C1453.14 452.419 1454.66 450.901 1456.53 450.901C1458.4 450.901 1459.92 452.419 1459.92 454.291C1459.92 456.162 1458.4 457.68 1456.53 457.68C1454.66 457.68 1453.14 456.162 1453.14 454.291Z" fill="#F07A25"/>
<path fill-rule="evenodd" clip-rule="evenodd" d="M1501.26 454.291C1501.26 452.419 1502.77 450.901 1504.65 450.901C1506.52 450.901 1508.03 452.419 1508.03 454.291C1508.03 456.162 1506.52 457.68 1504.65 457.68C1502.77 457.68 1501.26 456.162 1501.26 454.291Z" fill="#F07A25"/>
<path fill-rule="evenodd" clip-rule="evenodd" d="M1549.36 454.291C1549.36 452.419 1550.88 450.901 1552.75 450.901C1554.62 450.901 1556.14 452.419 1556.14 454.291C1556.14 456.162 1554.62 457.68 1552.75 457.68C1550.88 457.68 1549.36 456.162 1549.36 454.291Z" fill="#F07A25"/>
<path fill-rule="evenodd" clip-rule="evenodd" d="M1597.47 454.291C1597.47 452.419 1598.99 450.901 1600.86 450.901C1602.73 450.901 1604.25 452.419 1604.25 454.291C1604.25 456.162 1602.73 457.68 1600.86 457.68C1598.99 457.68 1597.47 456.162 1597.47 454.291Z" fill="#F07A25"/>
<path fill-rule="evenodd" clip-rule="evenodd" d="M1645.58 454.291C1645.58 452.419 1647.1 450.901 1648.97 450.901C1650.85 450.901 1652.36 452.419 1652.36 454.291C1652.36 456.162 1650.85 457.68 1648.97 457.68C1647.1 457.68 1645.58 456.162 1645.58 454.291Z" fill="#F07A25"/>
<path fill-rule="evenodd" clip-rule="evenodd" d="M1693.69 454.291C1693.69 452.419 1695.21 450.901 1697.08 450.901C1698.95 450.901 1700.47 452.419 1700.47 454.291C1700.47 456.162 1698.95 457.68 1697.08 457.68C1695.21 457.68 1693.69 456.162 1693.69 454.291Z" fill="#F07A25"/>
<path fill-rule="evenodd" clip-rule="evenodd" d="M1405.03 486.775C1405.03 484.903 1406.55 483.385 1408.42 483.385C1410.3 483.385 1411.81 484.903 1411.81 486.775C1411.81 488.646 1410.3 490.164 1408.42 490.164C1406.55 490.164 1405.03 488.646 1405.03 486.775Z" fill="#F07A25"/>
<path fill-rule="evenodd" clip-rule="evenodd" d="M1453.14 486.775C1453.14 484.903 1454.66 483.385 1456.53 483.385C1458.4 483.385 1459.92 484.903 1459.92 486.775C1459.92 488.646 1458.4 490.164 1456.53 490.164C1454.66 490.164 1453.14 488.646 1453.14 486.775Z" fill="#F07A25"/>
<path fill-rule="evenodd" clip-rule="evenodd" d="M1501.26 486.775C1501.26 484.903 1502.77 483.385 1504.65 483.385C1506.52 483.385 1508.03 484.903 1508.03 486.775C1508.03 488.646 1506.52 490.164 1504.65 490.164C1502.77 490.164 1501.26 488.646 1501.26 486.775Z" fill="#F07A25"/>
<path fill-rule="evenodd" clip-rule="evenodd" d="M1549.36 486.775C1549.36 484.903 1550.88 483.385 1552.75 483.385C1554.62 483.385 1556.14 484.903 1556.14 486.775C1556.14 488.646 1554.62 490.164 1552.75 490.164C1550.88 490.164 1549.36 488.646 1549.36 486.775Z" fill="#F07A25"/>
<path fill-rule="evenodd" clip-rule="evenodd" d="M1597.47 486.775C1597.47 484.903 1598.99 483.385 1600.86 483.385C1602.73 483.385 1604.25 484.903 1604.25 486.775C1604.25 488.646 1602.73 490.164 1600.86 490.164C1598.99 490.164 1597.47 488.646 1597.47 486.775Z" fill="#F07A25"/>
<path fill-rule="evenodd" clip-rule="evenodd" d="M1645.58 486.775C1645.58 484.903 1647.1 483.385 1648.97 483.385C1650.85 483.385 1652.36 484.903 1652.36 486.775C1652.36 488.646 1650.85 490.164 1648.97 490.164C1647.1 490.164 1645.58 488.646 1645.58 486.775Z" fill="#F07A25"/>
<path fill-rule="evenodd" clip-rule="evenodd" d="M1693.69 486.775C1693.69 484.903 1695.21 483.385 1697.08 483.385C1698.95 483.385 1700.47 484.903 1700.47 486.775C1700.47 488.646 1698.95 490.164 1697.08 490.164C1695.21 490.164 1693.69 488.646 1693.69 486.775Z" fill="#F07A25"/>
<path fill-rule="evenodd" clip-rule="evenodd" d="M1522.85 3.38876C1522.85 1.51697 1524.37 -0.000413314 1526.24 -0.000413314C1528.11 -0.000413314 1529.63 1.51697 1529.63 3.38876C1529.63 5.26056 1528.11 6.77794 1526.24 6.77794C1524.37 6.77794 1522.85 5.26056 1522.85 3.38876Z" fill="#F07A25"/>
<path fill-rule="evenodd" clip-rule="evenodd" d="M1570.96 3.38876C1570.96 1.51697 1572.48 -0.000413314 1574.35 -0.000413314C1576.22 -0.000413314 1577.74 1.51697 1577.74 3.38876C1577.74 5.26056 1576.22 6.77794 1574.35 6.77794C1572.48 6.77794 1570.96 5.26056 1570.96 3.38876Z" fill="#F07A25"/>
<path fill-rule="evenodd" clip-rule="evenodd" d="M1619.07 3.38876C1619.07 1.51697 1620.59 -0.000413314 1622.46 -0.000413314C1624.33 -0.000413314 1625.85 1.51697 1625.85 3.38876C1625.85 5.26056 1624.33 6.77794 1622.46 6.77794C1620.59 6.77794 1619.07 5.26056 1619.07 3.38876Z" fill="#F07A25"/>
<path fill-rule="evenodd" clip-rule="evenodd" d="M1667.18 3.38876C1667.18 1.51697 1668.7 -0.000413314 1670.57 -0.000413314C1672.44 -0.000413314 1673.96 1.51697 1673.96 3.38876C1673.96 5.26056 1672.44 6.77794 1670.57 6.77794C1668.7 6.77794 1667.18 5.26056 1667.18 3.38876Z" fill="#F07A25"/>
<path fill-rule="evenodd" clip-rule="evenodd" d="M1522.85 35.8727C1522.85 34.0009 1524.37 32.4835 1526.24 32.4835C1528.11 32.4835 1529.63 34.0009 1529.63 35.8727C1529.63 37.7445 1528.11 39.2619 1526.24 39.2619C1524.37 39.2619 1522.85 37.7445 1522.85 35.8727Z" fill="#F07A25"/>
<path fill-rule="evenodd" clip-rule="evenodd" d="M1570.96 35.8727C1570.96 34.0009 1572.48 32.4835 1574.35 32.4835C1576.22 32.4835 1577.74 34.0009 1577.74 35.8727C1577.74 37.7445 1576.22 39.2619 1574.35 39.2619C1572.48 39.2619 1570.96 37.7445 1570.96 35.8727Z" fill="#F07A25"/>
<path fill-rule="evenodd" clip-rule="evenodd" d="M1619.07 35.8727C1619.07 34.0009 1620.59 32.4835 1622.46 32.4835C1624.33 32.4835 1625.85 34.0009 1625.85 35.8727C1625.85 37.7445 1624.33 39.2619 1622.46 39.2619C1620.59 39.2619 1619.07 37.7445 1619.07 35.8727Z" fill="#F07A25"/>
<path fill-rule="evenodd" clip-rule="evenodd" d="M1667.18 35.8727C1667.18 34.0009 1668.7 32.4835 1670.57 32.4835C1672.44 32.4835 1673.96 34.0009 1673.96 35.8727C1673.96 37.7445 1672.44 39.2619 1670.57 39.2619C1668.7 39.2619 1667.18 37.7445 1667.18 35.8727Z" fill="#F07A25"/>
<path fill-rule="evenodd" clip-rule="evenodd" d="M1522.85 68.3567C1522.85 66.4849 1524.37 64.9675 1526.24 64.9675C1528.11 64.9675 1529.63 66.4849 1529.63 68.3567C1529.63 70.2285 1528.11 71.7458 1526.24 71.7458C1524.37 71.7458 1522.85 70.2285 1522.85 68.3567Z" fill="#F07A25"/>
<path fill-rule="evenodd" clip-rule="evenodd" d="M1570.96 68.3567C1570.96 66.4849 1572.48 64.9675 1574.35 64.9675C1576.22 64.9675 1577.74 66.4849 1577.74 68.3567C1577.74 70.2285 1576.22 71.7458 1574.35 71.7458C1572.48 71.7458 1570.96 70.2285 1570.96 68.3567Z" fill="#F07A25"/>
<path fill-rule="evenodd" clip-rule="evenodd" d="M1619.07 68.3567C1619.07 66.4849 1620.59 64.9675 1622.46 64.9675C1624.33 64.9675 1625.85 66.4849 1625.85 68.3567C1625.85 70.2285 1624.33 71.7458 1622.46 71.7458C1620.59 71.7458 1619.07 70.2285 1619.07 68.3567Z" fill="#F07A25"/>
<path fill-rule="evenodd" clip-rule="evenodd" d="M1667.18 68.3567C1667.18 66.4849 1668.7 64.9675 1670.57 64.9675C1672.44 64.9675 1673.96 66.4849 1673.96 68.3567C1673.96 70.2285 1672.44 71.7458 1670.57 71.7458C1668.7 71.7458 1667.18 70.2285 1667.18 68.3567Z" fill="#F07A25"/>
<path fill-rule="evenodd" clip-rule="evenodd" d="M1522.85 100.84C1522.85 98.9683 1524.37 97.4509 1526.24 97.4509C1528.11 97.4509 1529.63 98.9683 1529.63 100.84C1529.63 102.712 1528.11 104.229 1526.24 104.229C1524.37 104.229 1522.85 102.712 1522.85 100.84Z" fill="#F07A25"/>
<path fill-rule="evenodd" clip-rule="evenodd" d="M1570.96 100.84C1570.96 98.9683 1572.48 97.4509 1574.35 97.4509C1576.22 97.4509 1577.74 98.9683 1577.74 100.84C1577.74 102.712 1576.22 104.229 1574.35 104.229C1572.48 104.229 1570.96 102.712 1570.96 100.84Z" fill="#F07A25"/>
<path fill-rule="evenodd" clip-rule="evenodd" d="M1619.07 100.84C1619.07 98.9683 1620.59 97.4509 1622.46 97.4509C1624.33 97.4509 1625.85 98.9683 1625.85 100.84C1625.85 102.712 1624.33 104.229 1622.46 104.229C1620.59 104.229 1619.07 102.712 1619.07 100.84Z" fill="#F07A25"/>
<path fill-rule="evenodd" clip-rule="evenodd" d="M1667.18 100.84C1667.18 98.9683 1668.7 97.4509 1670.57 97.4509C1672.44 97.4509 1673.96 98.9683 1673.96 100.84C1673.96 102.712 1672.44 104.229 1670.57 104.229C1668.7 104.229 1667.18 102.712 1667.18 100.84Z" fill="#F07A25"/>
<path fill-rule="evenodd" clip-rule="evenodd" d="M1522.85 133.324C1522.85 131.452 1524.37 129.935 1526.24 129.935C1528.11 129.935 1529.63 131.452 1529.63 133.324C1529.63 135.196 1528.11 136.713 1526.24 136.713C1524.37 136.713 1522.85 135.196 1522.85 133.324Z" fill="#F07A25"/>
<path fill-rule="evenodd" clip-rule="evenodd" d="M1570.96 133.324C1570.96 131.452 1572.48 129.935 1574.35 129.935C1576.22 129.935 1577.74 131.452 1577.74 133.324C1577.74 135.196 1576.22 136.713 1574.35 136.713C1572.48 136.713 1570.96 135.196 1570.96 133.324Z" fill="#F07A25"/>
<path fill-rule="evenodd" clip-rule="evenodd" d="M1619.07 133.324C1619.07 131.452 1620.59 129.935 1622.46 129.935C1624.33 129.935 1625.85 131.452 1625.85 133.324C1625.85 135.196 1624.33 136.713 1622.46 136.713C1620.59 136.713 1619.07 135.196 1619.07 133.324Z" fill="#F07A25"/>
<path fill-rule="evenodd" clip-rule="evenodd" d="M1667.18 133.324C1667.18 131.452 1668.7 129.935 1670.57 129.935C1672.44 129.935 1673.96 131.452 1673.96 133.324C1673.96 135.196 1672.44 136.713 1670.57 136.713C1668.7 136.713 1667.18 135.196 1667.18 133.324Z" fill="#F07A25"/>
</g>
<defs>
<linearGradient id="paint0_linear_237_254" x1="855.043" y1="-138.167" x2="855.043" y2="614.228" gradientUnits="userSpaceOnUse">
<stop stop-color="#FAFAFA"/>
<stop offset="1" stop-color="#FAFAFA"/>
</linearGradient>
</defs>
</svg>
