<svg width="749" height="660" viewBox="0 0 749 660" fill="none" xmlns="http://www.w3.org/2000/svg">
<path fill-rule="evenodd" clip-rule="evenodd" d="M255.123 536.634L255.123 536.634C228.636 535.337 202.626 530.168 177.817 521.271C153.741 512.636 131.029 500.583 110.312 485.447C93.628 473.256 78.3338 459.129 64.8545 443.457C51.3146 427.715 39.6116 410.42 30.0703 392.052C20.3588 373.357 12.8757 353.523 7.82917 333.103C5.2609 322.711 3.29843 312.039 1.99625 301.384C0.67163 290.545 0 279.474 0 268.48C0 259.322 0.466382 250.086 1.38612 241.03C2.29263 232.104 3.66148 223.135 5.45461 214.372C7.22442 205.723 9.45027 197.066 12.0704 188.642C14.6614 180.312 17.6989 172.013 21.0985 163.975C27.8272 148.067 36.1556 132.723 45.8522 118.37C55.4562 104.154 66.4862 90.7859 78.6358 78.636C90.7852 66.4868 104.154 55.4568 118.37 45.8524C132.723 36.1555 148.067 27.8272 163.975 21.0986C172.014 17.6984 180.313 14.6609 188.642 12.0707C197.065 9.45047 205.722 7.22462 214.372 5.45493C223.136 3.66149 232.105 2.29255 241.029 1.38631C250.086 0.466519 259.322 0 268.48 0C280.13 0 291.854 0.754133 303.327 2.24123C314.595 3.70138 325.866 5.90059 336.826 8.77735C358.359 14.4287 379.164 22.7867 398.665 33.6192C417.834 44.2675 435.698 57.279 451.762 72.2924C467.791 87.2733 481.962 104.186 493.883 122.562C489.465 122.346 484.969 122.235 480.519 122.235C332.479 122.235 212.04 242.675 212.04 390.715C212.04 442.732 226.938 493.19 255.124 536.634L255.124 536.633L255.124 536.633C255.124 536.634 255.124 536.634 255.124 536.634C255.124 536.634 255.124 536.634 255.124 536.634L255.123 536.634ZM480.52 659.195C451.568 659.195 423.086 654.614 395.867 645.58C369.547 636.844 344.813 624.093 322.353 607.682C309.151 598.035 296.754 587.119 285.508 575.237C274.247 563.34 264.025 550.352 255.125 536.634H255.125C259.542 536.85 264.035 536.96 268.48 536.96C416.52 536.96 536.96 416.521 536.96 268.48C536.96 216.462 522.064 166.005 493.883 122.562C502.665 122.992 511.506 123.86 520.161 125.141C528.702 126.405 537.273 128.102 545.635 130.185C553.897 132.243 562.156 134.728 570.183 137.571C578.126 140.385 586.032 143.616 593.681 147.176C608.837 154.231 623.424 162.768 637.037 172.551C650.543 182.258 663.22 193.284 674.718 205.325C686.229 217.38 696.666 230.564 705.739 244.513C714.905 258.603 722.77 273.614 729.117 289.13C732.324 296.972 735.189 305.059 737.631 313.168C740.1 321.366 742.198 329.785 743.865 338.193C745.554 346.707 746.843 355.418 747.696 364.083C748.561 372.871 749 381.831 749 390.715C749 399.874 748.534 409.109 747.614 418.166C746.708 427.091 745.339 436.06 743.546 444.823C741.776 453.472 739.55 462.129 736.93 470.553C734.339 478.883 731.301 487.182 727.902 495.22C721.173 511.128 712.844 526.472 703.148 540.825C693.544 555.04 682.514 568.409 670.364 580.559C658.215 592.708 644.846 603.738 630.63 613.343C616.277 623.039 600.934 631.367 585.024 638.096C576.987 641.496 568.688 644.534 560.357 647.125C551.934 649.745 543.277 651.97 534.628 653.74C525.865 655.533 516.897 656.902 507.97 657.809C498.912 658.728 489.677 659.195 480.52 659.195H480.52Z" fill="#FFA15E" fill-opacity="0.21"/>
</svg>
