<svg width="73" height="10" viewBox="0 0 73 10" fill="none" xmlns="http://www.w3.org/2000/svg">
<path d="M5 0L6.55763 2.85611L9.75528 3.45492L7.5203 5.81889L7.93893 9.04508L5 7.65L2.06107 9.04508L2.4797 5.81889L0.244718 3.45492L3.44237 2.85611L5 0Z" fill="#F4A71D"/>
<path d="M18 0L19.5576 2.85611L22.7553 3.45492L20.5203 5.81889L20.9389 9.04508L18 7.65L15.0611 9.04508L15.4797 5.81889L13.2447 3.45492L16.4424 2.85611L18 0Z" fill="#F4A71D"/>
<path d="M30.5 0L32.2134 2.85611L35.7308 3.45492L33.2723 5.81889L33.7328 9.04508L30.5 7.65L27.2672 9.04508L27.7277 5.81889L25.2692 3.45492L28.7866 2.85611L30.5 0Z" fill="#F4A71D"/>
<path d="M42 0L43.5576 2.85611L46.7553 3.45492L44.5203 5.81889L44.9389 9.04508L42 7.65L39.0611 9.04508L39.4797 5.81889L37.2447 3.45492L40.4424 2.85611L42 0Z" fill="#F4A71D"/>
<path d="M55 0L56.5576 2.85611L59.7553 3.45492L57.5203 5.81889L57.9389 9.04508L55 7.65L52.0611 9.04508L52.4797 5.81889L50.2447 3.45492L53.4424 2.85611L55 0Z" fill="#F4A71D"/>
<path d="M72.4071 3.09439H68.4348V5.27223C68.6008 5.06794 68.8458 4.89649 69.17 4.75787C69.502 4.61924 69.8538 4.54993 70.2253 4.54993C70.8893 4.54993 71.4269 4.68126 71.8379 4.94391C72.2569 5.20657 72.5534 5.53853 72.7273 5.93981C72.9091 6.34108 73 6.76425 73 7.2093C73 7.7492 72.8854 8.23073 72.6561 8.6539C72.4348 9.06977 72.0988 9.39809 71.6482 9.63885C71.2055 9.87962 70.6601 10 70.0119 10C69.1502 10 68.4585 9.80301 67.9368 9.40903C67.415 9.01505 67.1028 8.49339 67 7.84405H68.3162C68.4032 8.18696 68.5968 8.46056 68.8972 8.66484C69.1976 8.86183 69.5731 8.96033 70.0237 8.96033C70.585 8.96033 71.004 8.80347 71.2806 8.48974C71.5652 8.17601 71.7075 7.76015 71.7075 7.24213C71.7075 6.71683 71.5652 6.31555 71.2806 6.0383C70.996 5.75376 70.5771 5.61149 70.0237 5.61149C69.6364 5.61149 69.3083 5.70269 69.0395 5.88509C68.7787 6.06019 68.5889 6.30096 68.4704 6.60739H67.1897V2H72.4071V3.09439Z" fill="black"/>
</svg>
