<svg width="1447" height="370" viewBox="0 0 1447 370" fill="none" xmlns="http://www.w3.org/2000/svg">
<mask id="mask0_1_9" style="mask-type:alpha" maskUnits="userSpaceOnUse" x="0" y="0" width="1447" height="370">
<rect width="1447" height="370" fill="#D9D9D9"/>
</mask>
<g mask="url(#mask0_1_9)">
<path d="M163.5 1.78044L395.5 1.78043L269.5 370.219L38.0001 370.22L163.5 1.78044Z" fill="url(#paint0_linear_1_9)"/>
<path d="M1099.5 1.78044L1331.5 1.78043L1205.5 370.219L974 370.22L1099.5 1.78044Z" fill="url(#paint1_linear_1_9)"/>
<path d="M636.5 1.78044L868.5 1.78043L742.5 370.219L511 370.22L636.5 1.78044Z" fill="url(#paint2_linear_1_9)"/>
<path d="M268.526 272.372C86.9102 242.784 -8.83121 325.795 -34 371H7.50351L1251.61 370.275H1443.12L1460.13 358.672C1557.63 286.151 1747.85 133.713 1728.65 104.124C1704.65 67.1386 1385.12 371 1285.61 358.672C1186.1 346.343 1031.59 217.256 793.57 198.401C555.55 179.546 495.545 309.357 268.526 272.372Z" fill="#4A4A4A"/>
<rect width="1447" height="370" fill="url(#paint3_linear_1_9)" fill-opacity="0.96"/>
</g>
<defs>
<linearGradient id="paint0_linear_1_9" x1="290.94" y1="-63.6098" x2="24.7949" y2="361.961" gradientUnits="userSpaceOnUse">
<stop/>
<stop offset="1" stop-color="#D9D9D9" stop-opacity="0"/>
</linearGradient>
<linearGradient id="paint1_linear_1_9" x1="1226.94" y1="-63.6098" x2="960.795" y2="361.961" gradientUnits="userSpaceOnUse">
<stop/>
<stop offset="1" stop-color="#D9D9D9" stop-opacity="0"/>
</linearGradient>
<linearGradient id="paint2_linear_1_9" x1="763.94" y1="-63.6098" x2="497.795" y2="361.961" gradientUnits="userSpaceOnUse">
<stop/>
<stop offset="1" stop-color="#D9D9D9" stop-opacity="0"/>
</linearGradient>
<linearGradient id="paint3_linear_1_9" x1="723.5" y1="0" x2="723.5" y2="676.157" gradientUnits="userSpaceOnUse">
<stop stop-color="#FF7009"/>
<stop offset="1" stop-color="#DF570A"/>
</linearGradient>
</defs>
</svg>
