<svg width="67" height="67" viewBox="0 0 67 67" fill="none" xmlns="http://www.w3.org/2000/svg">
<circle cx="33.5" cy="33.5" r="33.5" fill="#F9F9F9"/>
<g clip-path="url(#clip0_215_833)">
<path d="M52.75 16.3C52.2343 15.9663 51.6444 15.7645 51.0324 15.7122C50.4204 15.6599 49.8049 15.7587 49.24 16L30.73 23.29C30.2918 23.4683 29.8231 23.56 29.35 23.56H17.5C16.5054 23.56 15.5516 23.9551 14.8483 24.6583C14.1451 25.3616 13.75 26.3154 13.75 27.31V27.61H10V36.61H13.75V37C13.7735 37.9789 14.1789 38.9097 14.8797 39.5936C15.5804 40.2776 16.5208 40.6603 17.5 40.66L22 50.2C22.3047 50.8424 22.7844 51.3859 23.3841 51.768C23.9837 52.15 24.679 52.3552 25.39 52.36H27.28C28.2694 52.3521 29.2155 51.9535 29.9123 51.2511C30.6091 50.5487 31 49.5994 31 48.61V41.02L49.24 48.31C49.6886 48.4885 50.1671 48.5802 50.65 48.58C51.3991 48.5679 52.1286 48.3386 52.75 47.92C53.2434 47.5868 53.6504 47.141 53.9374 46.6193C54.2243 46.0976 54.3829 45.5151 54.4 44.92V19.39C54.3973 18.7795 54.2455 18.179 53.958 17.6405C53.6704 17.102 53.2558 16.6418 52.75 16.3ZM27.25 27.31V37H17.5V27.31H27.25ZM27.25 48.61H25.36L21.67 40.66H27.25V48.61ZM32.11 37.45C31.7538 37.268 31.3824 37.1174 31 37V27.1C31.3787 27.0218 31.7501 26.9114 32.11 26.77L50.65 19.39V44.83L32.11 37.45ZM54.49 28.36V35.86C55.4846 35.86 56.4384 35.4649 57.1417 34.7616C57.8449 34.0584 58.24 33.1046 58.24 32.11C58.24 31.1154 57.8449 30.1616 57.1417 29.4583C56.4384 28.7551 55.4846 28.36 54.49 28.36Z" fill="#F5830B"/>
</g>
<defs>
<clipPath id="clip0_215_833">
<rect width="48" height="48" fill="white" transform="translate(10 10)"/>
</clipPath>
</defs>
</svg>
