<svg width="421" height="390" viewBox="0 0 421 390" fill="none" xmlns="http://www.w3.org/2000/svg">
<path d="M162.475 7.36025C96.7583 -25.6937 54.8305 60.5655 42.0812 107.827C45.7032 170.455 52.9471 296.321 52.9471 298.757C175.34 454.284 316.626 376.318 371.969 317.893C440.12 245.175 421.228 174.805 403.263 148.709L187.249 24.3222L162.475 7.36025Z" fill="#D9D9D9"/>
<path d="M295.356 355.651C354.097 329.215 385.515 270.105 393.881 243.854C399.337 228.683 409.663 198.171 407.324 197.492C418.228 128.66 380.619 61.6087 379.892 64.1147C335.059 5.11113 258.718 16.1492 226.151 29.0436C183.305 48.1341 99.2822 62.1367 62.6262 66.7517C-22.3308 76.1669 -2.56586 173.422 17.9362 220.873C49.2841 306.394 107.621 347.247 132.871 356.984C197.266 387.248 268.026 368.705 295.356 355.651Z" fill="#F07A25"/>
<path d="M253.349 212.637C267.222 188.946 283.04 166.501 294.119 141.912C307.392 112.435 327.253 102.958 360.787 113.283C327.902 171.439 295.167 229.346 259.886 291.792C245.015 266.205 232.44 244.558 218.268 220.219C204.296 243.91 191.771 265.058 179.245 286.355C151.899 263.162 149.504 250.444 166.071 221.765C181.84 194.482 197.659 167.2 213.228 139.767C226.169 116.924 247.694 108.145 277.801 113.432C267.222 131.338 258.439 148.945 247.061 164.706C234.037 182.761 234.386 197.574 253.349 212.637Z" fill="white"/>
<path d="M131.839 215.181C111.978 181.364 92.4664 148.196 71.1086 111.786H190.423C186.83 141.463 169.614 153.334 137.328 149.992C156.889 175.728 153.596 195.879 131.839 215.131V215.181Z" fill="white"/>
</svg>
