<svg width="1821" height="218" viewBox="0 0 1821 218" fill="none" xmlns="http://www.w3.org/2000/svg">
<mask id="mask0_235_29" style="mask-type:alpha" maskUnits="userSpaceOnUse" x="0" y="0" width="1821" height="218">
<rect width="1821" height="218" fill="#D9D9D9"/>
</mask>
<g mask="url(#mask0_235_29)">
<path d="M278.423 105.538C101.145 81.1495 -70.1722 95.3762 -133.671 105.538L-164.772 130.877L-253.541 162.551L-364.531 166.479L-170.147 212.01H1732.87L1752.5 216C1792.5 216 1753.02 122.721 1635.87 124.938C1489.43 127.71 1190.73 84.1585 1182.31 84.1585C1052.2 74.3397 892.676 100.391 829.177 114.644C621.834 150.119 375.615 123.355 278.423 105.538Z" fill="#FF0000"/>
<path d="M308.136 71.8257C-46.2015 19.3858 -397.545 128.241 -528.925 189.223L-587 197H1794.09L1815 93.3053C1764.93 78.1214 1610.42 41.6802 1392.99 17.386C1121.19 -12.9818 946.192 171.447 861.789 151.448C794.266 135.45 464.553 91.7005 308.136 71.8257Z" fill="url(#paint0_linear_235_29)"/>
<path d="M-6 1H1815V216H-6V1Z" fill="url(#paint1_linear_235_29)"/>
<path d="M1348.5 82L1350.63 88.5643H1357.54L1351.95 92.6213L1354.08 99.1857L1348.5 95.1287L1342.92 99.1857L1345.05 92.6213L1339.46 88.5643H1346.37L1348.5 82Z" fill="white"/>
<path d="M1721 171L1723.02 177.219H1729.56L1724.27 181.062L1726.29 187.281L1721 183.438L1715.71 187.281L1717.73 181.062L1712.44 177.219H1718.98L1721 171Z" fill="white"/>
<path d="M92 41L95.3677 51.3647H106.266L97.4491 57.7705L100.817 68.1353L92 61.7295L83.1832 68.1353L86.5509 57.7705L77.7342 51.3647H88.6323L92 41Z" fill="white"/>
<path d="M226 170L229.368 180.365H240.266L231.449 186.771L234.817 197.135L226 190.729L217.183 197.135L220.551 186.771L211.734 180.365H222.632L226 170Z" fill="white"/>
<path d="M1003.31 167.52L1015.96 173.177L1004.73 181.303L1003.31 167.52Z" fill="white"/>
<path d="M1649.48 23.6916L1662.13 29.3484L1650.91 37.4745L1649.48 23.6916Z" fill="white"/>
</g>
<defs>
<linearGradient id="paint0_linear_235_29" x1="614" y1="1" x2="614" y2="216" gradientUnits="userSpaceOnUse">
<stop stop-color="#FF5C00"/>
<stop offset="1" stop-color="#D9D9D9" stop-opacity="0"/>
</linearGradient>
<linearGradient id="paint1_linear_235_29" x1="-24.9688" y1="108.5" x2="1814.88" y2="126.834" gradientUnits="userSpaceOnUse">
<stop stop-color="#FF852D" stop-opacity="0.71"/>
<stop offset="1" stop-color="#B15500"/>
</linearGradient>
</defs>
</svg>
