<svg width="135" height="122" viewBox="0 0 135 122" fill="none" xmlns="http://www.w3.org/2000/svg">
<path d="M134.796 34.1448C129.307 -8.47546 100.494 -2.35866 86.7735 6.02728C75.013 16.2877 51.8187 22.1414 41.6917 23.7857C2.88205 28.9159 -1.92015 53.8764 0.529953 65.7154C5.23415 104.389 36.1381 118.004 51.0021 119.977C77.2672 127.87 102.128 110.769 111.275 101.232C132.835 86.2363 135.939 50.259 134.796 34.1448Z" fill="#FCC716"/>
<path d="M99.1219 40C99.8207 40.3895 100.02 40.9931 100.009 41.7709C99.9748 43.9576 99.9998 46.1455 99.9961 48.3334C99.9948 49.4744 99.5527 49.9377 98.4193 49.944C96.17 49.9553 93.9207 49.954 91.6714 49.944C90.4979 49.939 90.0784 49.4982 90.0683 48.3009C90.0633 47.6383 90.0683 46.9746 90.0683 46.272H79.9252C89.913 51.4281 95.3296 59.5561 96.314 70.755C96.9903 70.755 97.7129 70.7513 98.4343 70.755C99.5427 70.7625 99.9923 71.2096 99.9961 72.3168C100.001 74.5874 100.001 76.8579 99.9961 79.1285C99.9935 80.2231 99.5427 80.6903 98.4406 80.6965C96.17 80.7091 93.9007 80.7091 91.6301 80.6965C90.5217 80.6903 90.0771 80.2432 90.0721 79.136C90.0608 76.8655 90.0621 74.5949 90.0721 72.3243C90.0771 71.1884 90.5317 70.7588 91.6827 70.7538C92.3464 70.7513 93.0102 70.7538 93.7441 70.7538C93.3972 64.8362 91.3245 59.6563 87.5072 55.2128C83.6711 50.7468 78.8394 47.9126 72.9794 46.7003C72.9794 47.3403 72.9919 47.8988 72.9769 48.4574C72.9494 49.4393 72.4947 49.9302 71.5179 49.9377C69.1646 49.9578 66.8101 49.959 64.4569 49.9365C63.5101 49.9277 63.0642 49.4405 63.0241 48.4925C63.0116 48.2019 63.0216 47.9089 63.0216 47.6171C63.0216 47.349 63.0216 47.0798 63.0216 46.7103C57.9507 47.721 53.6237 50.0154 50.0118 53.591C45.2665 58.2887 42.689 64.0059 42.2469 70.755C43.0009 70.755 43.7047 70.75 44.4073 70.7563C45.4443 70.7663 45.919 71.2034 45.9252 72.2278C45.9415 74.5611 45.9415 76.8943 45.9252 79.2275C45.9177 80.2219 45.4618 80.6865 44.4674 80.694C42.1355 80.7141 39.8023 80.694 37.4691 80.704C36.7627 80.7066 36.2956 80.3747 36.0013 79.756V71.6292C36.3895 70.9316 36.9931 70.6962 37.7709 70.7463C38.4096 70.7876 39.0521 70.755 39.6833 70.755C40.6577 59.5787 46.0717 51.4318 56.0821 46.2682H45.929C45.929 46.9671 45.9327 47.6296 45.929 48.2921C45.919 49.5194 45.5032 49.9415 44.2733 49.9453C42.0666 49.9515 39.8599 49.9352 37.6544 49.954C36.8955 49.9603 36.3206 49.7211 36 49.0022V40H44.9984C45.7173 40.3244 45.964 40.9017 45.934 41.6619C45.9064 42.3395 45.9277 43.0183 45.9277 43.6795H63.0179C63.0179 42.9845 63.0354 42.3407 63.0129 41.697C62.9866 40.9168 63.2345 40.3144 63.9973 40H71.9975C72.7603 40.3131 73.007 40.9155 72.9819 41.697C72.9606 42.3545 72.9769 43.0133 72.9769 43.6883H90.0671C90.0671 42.9857 90.0884 42.3232 90.0621 41.6619C90.0308 40.903 90.2787 40.3256 90.9976 40H99.1219ZM70.4433 42.5348H65.564V47.3966H70.4433V42.5348ZM43.3778 47.4042V42.5348H38.5411V47.4042H43.3778ZM92.6007 42.5211V47.4016H97.4487V42.5211H92.6007ZM38.5486 73.2899V78.1517H43.3966V73.2899H38.5486ZM97.4462 78.1617V73.2961H92.6032V78.1617H97.4462Z" fill="black"/>
<path d="M74.9171 85.2577C75.2803 85.2577 75.6084 85.2527 75.9365 85.2577C77.7237 85.2902 79.1239 86.2984 79.6211 87.9065C80.1233 89.5283 79.5334 91.1001 78.0731 92.1721C77.889 92.3074 77.7625 92.6431 77.7613 92.8873C77.7412 96.012 77.7475 99.1367 77.7462 102.261C77.7462 102.469 77.755 102.681 77.7237 102.885C77.626 103.536 77.1038 104.002 76.4938 104C75.8814 103.997 75.3642 103.531 75.269 102.879C75.2389 102.675 75.2477 102.463 75.2477 102.255C75.2477 99.3383 75.2477 96.4215 75.2477 93.506V92.7946H60.7487V93.4909C60.7487 96.4077 60.7487 99.3246 60.7487 102.24C60.7487 102.448 60.7588 102.66 60.73 102.864C60.6398 103.52 60.1301 103.988 59.5176 104C58.8827 104.011 58.3517 103.525 58.2652 102.838C58.2402 102.632 58.2502 102.422 58.2502 102.214C58.2502 99.1092 58.2452 96.0057 58.2565 92.901C58.2577 92.5378 58.1763 92.3099 57.8469 92.0907C56.5169 91.2041 55.9195 89.5847 56.319 88.1006C56.7511 86.5001 58.0198 85.4218 59.6729 85.2815C60.1251 85.2427 60.5847 85.2752 61.0944 85.2752C60.5797 82.8957 59.6667 80.7654 58.2803 78.8642C57.5839 77.9099 56.7624 77.0445 55.9646 76.1691C55.2933 75.4327 55.2044 75.0319 55.6778 74.1652C56.2351 73.142 56.7962 72.1201 57.3685 71.1056C57.6441 70.6172 58.0561 70.3154 58.6447 70.3843C59.167 70.4456 59.5828 70.7412 59.6692 71.2509C59.7293 71.6091 59.6441 72.0374 59.4926 72.3756C59.1845 73.0556 58.8063 73.7069 58.418 74.3468C58.2076 74.6937 58.2527 74.9179 58.5282 75.2085C60.7588 77.5642 62.298 80.3195 63.2135 83.4254C63.3838 84.0028 63.509 84.5939 63.6643 85.2176H72.1643C72.808 83.4931 73.3603 81.7948 74.0705 80.1655C74.8833 78.3031 76.0755 76.665 77.482 75.1947C77.7325 74.933 77.7963 74.7326 77.606 74.3869C74.8933 69.4913 72.1981 64.5857 69.4967 59.6838C69.4579 59.6137 69.4065 59.5498 69.2988 59.392C69.2775 59.6124 69.2525 59.7414 69.2525 59.8704C69.25 62.5581 69.2588 65.2457 69.2412 67.9321C69.2387 68.3241 69.3577 68.4957 69.7246 68.6547C71.5794 69.4612 72.5738 71.4738 72.1355 73.4376C71.7034 75.3725 69.9614 76.764 67.9838 76.7552C66.0013 76.7464 64.2742 75.3425 63.8597 73.4025C63.4439 71.4551 64.427 69.4612 66.2505 68.6635C66.6413 68.4931 66.764 68.3115 66.7602 67.8958C66.7402 65.2507 66.7502 62.6044 66.7502 59.9581C66.7502 59.8015 66.7502 59.6462 66.7502 59.4897C66.7089 59.4822 66.6676 59.4747 66.6262 59.4659C66.0464 60.5129 65.4665 61.5599 64.8879 62.6069C64.5761 63.1717 64.283 63.7478 63.9511 64.3001C63.5253 65.0077 62.8164 65.2231 62.1978 64.865C61.5991 64.5193 61.39 63.8117 61.7657 63.1204C63.4564 60.0132 65.1559 56.911 66.8867 53.8264C67.4616 52.8019 68.6025 52.8883 69.2024 53.9716C70.937 57.1026 72.6553 60.2411 74.3823 63.3759C76.2797 66.8199 78.1783 70.264 80.0757 73.7094C80.8835 75.1759 80.8597 75.33 79.6849 76.5022C77.3743 78.8066 75.8463 81.5556 75.026 84.7066C74.9847 84.8657 74.9622 85.0298 74.9183 85.2527L74.9171 85.2577ZM68.0652 87.7575C65.5053 87.7575 62.9454 87.7562 60.3855 87.76C60.1376 87.76 59.8821 87.7662 59.6441 87.8238C59.068 87.9654 58.7236 88.4262 58.7224 89.0023C58.7199 89.5809 59.0605 90.0431 59.6354 90.1871C59.8733 90.2472 60.1288 90.2535 60.3768 90.2547C65.4552 90.2585 70.5337 90.2585 75.6122 90.2535C75.9002 90.2535 76.202 90.2385 76.4713 90.1495C77.0011 89.9755 77.2703 89.5697 77.2728 89.0111C77.2753 88.4525 77.0086 88.0443 76.4801 87.8664C76.212 87.7763 75.909 87.7612 75.6209 87.76C73.1024 87.7525 70.5838 87.755 68.0665 87.755L68.0652 87.7575ZM69.7434 72.5171C69.7422 71.5678 68.9419 70.7675 67.9951 70.77C67.047 70.7712 66.2505 71.5728 66.2518 72.5233C66.253 73.4802 67.0395 74.2617 68.0001 74.2604C68.9594 74.2592 69.7447 73.4739 69.7434 72.5183V72.5171Z" fill="white"/>
<path d="M60.6057 66.527C61.2657 66.547 61.8256 67.1382 61.8093 67.7982C61.7943 68.462 61.2081 69.0205 60.5469 69.0042C59.8743 68.988 59.3383 68.4194 59.3533 67.7393C59.3684 67.0693 59.9495 66.507 60.6057 66.527Z" fill="white"/>
</svg>
