<svg width="138" height="124" viewBox="0 0 138 124" fill="none" xmlns="http://www.w3.org/2000/svg">
<path d="M0.208582 34.6093C5.80858 -8.59074 35.2086 -2.39074 49.2086 6.10926C61.2086 16.5093 84.8752 22.4426 95.2085 24.1093C134.809 29.3093 139.708 54.6093 137.208 66.6093C132.408 105.809 100.875 119.609 85.7085 121.609C58.9085 129.609 33.5419 112.276 24.2086 102.609C2.20858 87.4093 -0.958085 50.9426 0.208582 34.6093Z" fill="#FF8522"/>
<path d="M98.5548 40.8982V95.1038C98.5178 95.201 98.4706 95.2949 98.447 95.3955C97.7884 98.2619 95.6273 99.9952 92.6712 99.9968C75.0675 100 57.4621 100.002 39.8583 99.9968C36.4659 99.9968 34.0033 97.5545 34.0033 94.1869C33.9983 76.7302 33.9983 59.2735 34.0084 41.8168C34.0084 41.2804 34.0707 40.7273 34.2071 40.2076C34.8826 37.6329 37.1077 36.0069 39.9223 36.0069C53.4717 36.0035 67.0227 36.0069 80.5721 36.0069C84.6484 36.0069 88.7229 35.9868 92.7992 36.0153C95.2332 36.032 96.9984 37.1769 98.0495 39.3628C98.282 39.8456 98.3914 40.387 98.5565 40.9016L98.5548 40.8982ZM94.7717 54.8683H37.7814C37.7814 55.1583 37.7814 55.4064 37.7814 55.6545C37.7814 68.3874 37.7814 81.1203 37.7814 93.8533C37.7814 95.5748 38.4451 96.2336 40.1784 96.2336C57.5732 96.2336 74.9698 96.2336 92.3646 96.2336C94.1029 96.2336 94.77 95.5765 94.77 93.86C94.77 81.1069 94.77 68.3522 94.77 55.5991V54.8683H94.7717ZM37.7848 51.0229H94.7717V50.3038C94.7717 47.5866 94.7717 44.8677 94.7717 42.1504C94.7717 40.4272 94.1097 39.7701 92.3747 39.7701C74.9799 39.7701 57.5867 39.7701 40.1918 39.7701C40.0032 39.7701 39.8128 39.7634 39.6242 39.7735C38.6169 39.8254 37.8 40.5764 37.7915 41.5721C37.7663 44.7051 37.7831 47.8397 37.7831 51.0246L37.7848 51.0229Z" fill="black"/>
<path d="M74.0677 62.5362C74.0207 62.685 73.9495 63.0128 73.8156 63.3138C69.977 71.9462 66.1332 80.5768 62.2842 89.2041C61.78 90.3329 60.7074 90.8062 59.6625 90.3898C58.5951 89.965 58.1952 88.8714 58.7098 87.7141C62.5502 79.0818 66.3957 70.4511 70.243 61.8221C70.6846 60.8321 71.5538 60.3422 72.4926 60.5244C73.3897 60.6984 74.0573 61.4743 74.0694 62.5345L74.0677 62.5362Z" fill="white"/>
<path d="M48.7876 76.0747C50.4095 77.4203 51.9582 78.7053 53.507 79.9885C54.3301 80.6715 55.1582 81.3477 55.9764 82.0357C56.9037 82.8164 57.0794 83.9344 56.4222 84.8096C55.7519 85.7016 54.6376 85.7758 53.6729 84.9765C50.743 82.55 47.8131 80.1217 44.8898 77.6884C43.7282 76.7222 43.7266 75.417 44.8865 74.4525C47.8115 72.0192 50.7398 69.591 53.6696 67.1644C54.636 66.3652 55.7487 66.436 56.4189 67.3263C57.0908 68.2184 56.9037 69.3296 55.9309 70.139C53.7656 71.94 51.5938 73.7358 49.4253 75.5351C49.2366 75.6902 49.0511 75.8504 48.7876 76.073V76.0747Z" fill="white"/>
<path d="M84.114 76.0645C82.6001 74.8593 81.1507 73.7046 79.703 72.5532C78.6626 71.7256 77.6171 70.9046 76.5818 70.0719C75.628 69.3032 75.4684 68.1603 76.1829 67.2956C76.8754 66.4578 78.0142 66.3718 78.9579 67.1186C82.0519 69.5662 85.1425 72.0172 88.2263 74.4783C89.3957 75.4122 89.3838 76.7405 88.2009 77.6828C85.1323 80.1288 82.0604 82.568 78.9833 85.0038C78.0091 85.7741 76.8533 85.6882 76.1626 84.82C75.4667 83.9452 75.6398 82.8208 76.6089 82.0488C78.9019 80.2198 81.1999 78.3992 83.4945 76.5736C83.6744 76.4303 83.8526 76.282 84.1157 76.0662L84.114 76.0645Z" fill="white"/>
<path d="M83.2481 43.7928C85.0621 43.7928 86.8745 43.7893 88.6885 43.7928C89.9084 43.7963 90.7535 44.5867 90.7652 45.7186C90.7769 46.8748 89.9201 47.6826 88.6634 47.6843C85.0571 47.6878 81.4508 47.6878 77.8462 47.6843C76.5878 47.6843 75.731 46.8817 75.7393 45.7256C75.746 44.5746 76.6028 43.7963 77.8713 43.7945C79.6636 43.7911 81.4558 43.7945 83.2481 43.7945V43.7928Z" fill="black"/>
<path d="M43.7209 43.7914C44.7734 43.7809 45.6678 44.651 45.6869 45.7052C45.706 46.7837 44.8029 47.6955 43.7244 47.6869C42.672 47.6782 41.7932 46.7942 41.7915 45.74C41.7915 44.6875 42.6685 43.8 43.7209 43.7914Z" fill="black"/>
<path d="M53.4778 45.7085C53.4957 46.7608 52.5092 47.6603 51.3044 47.6864C50.0758 47.7124 49.0259 46.8146 49.0259 45.7362C49.0259 44.6839 50.0322 43.7983 51.235 43.7913C52.4378 43.7826 53.458 44.6544 53.4778 45.7085Z" fill="black"/>
<path d="M58.7556 47.6869C57.7031 47.6817 56.8209 46.7995 56.8174 45.7471C56.8122 44.6687 57.7292 43.7691 58.806 43.7917C59.8601 43.8143 60.7268 44.7121 60.7129 45.7645C60.699 46.8186 59.808 47.6921 58.7573 47.6869H58.7556Z" fill="black"/>
</svg>
