<svg width="67" height="67" viewBox="0 0 67 67" fill="none" xmlns="http://www.w3.org/2000/svg">
<circle cx="33.5" cy="33.5" r="33.5" fill="#F4F4F4"/>
<path d="M29.2 16C29.2 15.6817 29.0736 15.3765 28.8486 15.1515C28.6235 14.9264 28.3183 14.8 28 14.8C27.6818 14.8 27.3766 14.9264 27.1515 15.1515C26.9265 15.3765 26.8 15.6817 26.8 16V19.6H25.6C24.0087 19.6 22.4826 20.2321 21.3574 21.3573C20.2322 22.4826 19.6 24.0087 19.6 25.6V26.8H16C15.6818 26.8 15.3766 26.9264 15.1515 27.1515C14.9265 27.3765 14.8 27.6817 14.8 28C14.8 28.3182 14.9265 28.6235 15.1515 28.8485C15.3766 29.0736 15.6818 29.2 16 29.2H19.6V32.8H16C15.6818 32.8 15.3766 32.9264 15.1515 33.1515C14.9265 33.3765 14.8 33.6817 14.8 34C14.8 34.3182 14.9265 34.6235 15.1515 34.8485C15.3766 35.0736 15.6818 35.2 16 35.2H19.6V38.8H16C15.6818 38.8 15.3766 38.9264 15.1515 39.1515C14.9265 39.3765 14.8 39.6817 14.8 40C14.8 40.3182 14.9265 40.6235 15.1515 40.8485C15.3766 41.0736 15.6818 41.2 16 41.2H19.6V42.4C19.6 43.9913 20.2322 45.5174 21.3574 46.6426C22.4826 47.7678 24.0087 48.4 25.6 48.4H26.8V52C26.8 52.3182 26.9265 52.6235 27.1515 52.8485C27.3766 53.0736 27.6818 53.2 28 53.2C28.3183 53.2 28.6235 53.0736 28.8486 52.8485C29.0736 52.6235 29.2 52.3182 29.2 52V48.4H32.8V52C32.8 52.3182 32.9265 52.6235 33.1515 52.8485C33.3766 53.0736 33.6818 53.2 34 53.2C34.3183 53.2 34.6235 53.0736 34.8486 52.8485C35.0736 52.6235 35.2001 52.3182 35.2001 52V48.4H38.8V52C38.8 52.3182 38.9265 52.6235 39.1515 52.8485C39.3766 53.0736 39.6818 53.2 40 53.2C40.3183 53.2 40.6235 53.0736 40.8486 52.8485C41.0736 52.6235 41.2001 52.3182 41.2001 52V48.4H42.4C43.9913 48.4 45.5175 47.7678 46.6427 46.6426C47.7679 45.5174 48.4001 43.9913 48.4001 42.4V41.2H52C52.3183 41.2 52.6235 41.0736 52.8486 40.8485C53.0736 40.6235 53.2001 40.3182 53.2001 40C53.2001 39.6817 53.0736 39.3765 52.8486 39.1515C52.6235 38.9264 52.3183 38.8 52 38.8H48.4001V35.2H52C52.3183 35.2 52.6235 35.0736 52.8486 34.8485C53.0736 34.6235 53.2001 34.3182 53.2001 34C53.2001 33.6817 53.0736 33.3765 52.8486 33.1515C52.6235 32.9264 52.3183 32.8 52 32.8H48.4001V29.2H52C52.3183 29.2 52.6235 29.0736 52.8486 28.8485C53.0736 28.6235 53.2001 28.3182 53.2001 28C53.2001 27.6817 53.0736 27.3765 52.8486 27.1515C52.6235 26.9264 52.3183 26.8 52 26.8H48.4001V25.6C48.4001 24.0087 47.7679 22.4826 46.6427 21.3573C45.5175 20.2321 43.9913 19.6 42.4 19.6H41.2001V16C41.2001 15.6817 41.0736 15.3765 40.8486 15.1515C40.6235 14.9264 40.3183 14.8 40 14.8C39.6818 14.8 39.3766 14.9264 39.1515 15.1515C38.9265 15.3765 38.8 15.6817 38.8 16V19.6H35.2001V16C35.2001 15.6817 35.0736 15.3765 34.8486 15.1515C34.6235 14.9264 34.3183 14.8 34 14.8C33.6818 14.8 33.3766 14.9264 33.1515 15.1515C32.9265 15.3765 32.8 15.6817 32.8 16V19.6H29.2V16ZM36.3664 28.096L35.368 31.6H39.0376C39.22 31.6001 39.3986 31.6523 39.5524 31.7502C39.7063 31.8482 39.829 31.9879 39.9063 32.1531C39.9836 32.3183 40.0123 32.502 39.9889 32.6829C39.9656 32.8638 39.8912 33.0343 39.7745 33.1744L33.3953 40.8304C32.692 41.6704 31.3409 40.9504 31.6529 39.8992L32.692 36.4H28.96C28.7772 36.4002 28.5982 36.3482 28.4439 36.2502C28.2896 36.1521 28.1665 36.012 28.0892 35.8464C28.0118 35.6808 27.9833 35.4965 28.007 35.3152C28.0308 35.134 28.1058 34.9633 28.2232 34.8232L34.6264 27.172C35.3224 26.3368 36.6665 27.0496 36.3689 28.096H36.3664Z" fill="#F59614"/>
</svg>
